<?xml version="1.0" encoding="UTF-8"?>
<!DOCTYPE svg PUBLIC "-//W3C//DTD SVG 1.1//EN" "http://www.w3.org/Graphics/SVG/1.1/DTD/svg11.dtd">
<svg xmlns="http://www.w3.org/2000/svg" version="1.1" width="40px" height="41px" style="shape-rendering:geometricPrecision; text-rendering:geometricPrecision; image-rendering:optimizeQuality; fill-rule:evenodd; clip-rule:evenodd" xmlns:xlink="http://www.w3.org/1999/xlink">
<g><path style="opacity:1" fill="#ffede5" d="M -0.5,-0.5 C 12.8333,-0.5 26.1667,-0.5 39.5,-0.5C 39.5,13.1667 39.5,26.8333 39.5,40.5C 26.1667,40.5 12.8333,40.5 -0.5,40.5C -0.5,26.8333 -0.5,13.1667 -0.5,-0.5 Z"/></g>
<g><path style="opacity:1" fill="#ff5207" d="M 18.5,11.5 C 20.371,11.8588 21.871,12.8588 23,14.5C 23.7096,13.0267 24.8762,12.3601 26.5,12.5C 26.0548,15.3646 26.7215,17.8646 28.5,20C 26.6787,22.456 26.012,25.2893 26.5,28.5C 24.5,28.5 22.5,28.5 20.5,28.5C 19.8333,20.5 19.1667,20.5 18.5,28.5C 16.5,28.5 14.5,28.5 12.5,28.5C 12.988,25.2893 12.3213,22.456 10.5,20C 13.3714,17.2972 16.0381,14.4639 18.5,11.5 Z"/></g>
<g><path style="opacity:1" fill="#ffe9de" d="M 18.5,14.5 C 24.291,16.6335 25.9576,20.6335 23.5,26.5C 22.5344,24.604 22.2011,22.604 22.5,20.5C 20.5,20.5 18.5,20.5 16.5,20.5C 16.7989,22.604 16.4656,24.604 15.5,26.5C 13.5934,21.6867 14.5934,17.6867 18.5,14.5 Z"/></g>
<g><path style="opacity:1" fill="#ff611f" d="M 18.5,16.5 C 19.7562,16.4614 20.7562,16.9614 21.5,18C 20.1667,18.6667 18.8333,18.6667 17.5,18C 18.056,17.6174 18.3893,17.1174 18.5,16.5 Z"/></g>
</svg>
